# xmcd
# 
# Track frame offsets:
#     150
#     13712
#     34238
#     49457
# 
# Disc length: 922
# 
# Revision: 0
# Processed by: cddbd v1.5.2PL0 Copyright (c) Steve Scherf et al.
# Submitted via: fre:ac v1.0.17
# 
DISCID=30039804
DTITLE=Tax Collectors - Collecting Hearts
DYEAR=0
DGENRE=
TTITLE0=Can't see it
TTITLE1=City
TTITLE2=Miracle
TTITLE3=Horn of Victory
EXTD=
EXTT0=
EXTT1=
EXTT2=
EXTT3=
PLAYORDER=
